<mxfile host="app.diagrams.net" modified="2023-05-17T22:15:48.041Z" agent="Mozilla/5.0 (Windows NT 10.0; Win64; x64; rv:109.0) Gecko/20100101 Firefox/113.0" etag="3WHqx9byjZCVAFIj6NRg" version="21.3.0" type="device">
  <diagram name="Page-1" id="6bfPkC16kugTYoz8nDlM">
    <mxGraphModel dx="478" dy="261" grid="1" gridSize="10" guides="1" tooltips="1" connect="1" arrows="1" fold="1" page="1" pageScale="1" pageWidth="850" pageHeight="1100" math="0" shadow="0">
      <root>
        <mxCell id="0" />
        <mxCell id="1" parent="0" />
        <mxCell id="QAPO_vSzAAuB1gk4NF0p-22" value="" style="rounded=0;whiteSpace=wrap;html=1;fillColor=none;" vertex="1" parent="1">
          <mxGeometry x="165" y="170" width="165" height="190" as="geometry" />
        </mxCell>
        <mxCell id="QAPO_vSzAAuB1gk4NF0p-69" style="edgeStyle=orthogonalEdgeStyle;rounded=0;orthogonalLoop=1;jettySize=auto;html=1;entryX=0;entryY=0.5;entryDx=0;entryDy=0;entryPerimeter=0;shape=link;exitX=0;exitY=0.5;exitDx=0;exitDy=0;width=-9.84;" edge="1" parent="1" source="QAPO_vSzAAuB1gk4NF0p-22" target="QAPO_vSzAAuB1gk4NF0p-50">
          <mxGeometry relative="1" as="geometry" />
        </mxCell>
        <mxCell id="QAPO_vSzAAuB1gk4NF0p-20" value="" style="rounded=0;whiteSpace=wrap;html=1;fillColor=none;" vertex="1" parent="1">
          <mxGeometry x="60" y="170" width="80" height="190" as="geometry" />
        </mxCell>
        <mxCell id="QAPO_vSzAAuB1gk4NF0p-54" style="rounded=0;orthogonalLoop=1;jettySize=auto;html=1;entryX=0;entryY=0.5;entryDx=0;entryDy=0;" edge="1" parent="1" source="QAPO_vSzAAuB1gk4NF0p-3" target="QAPO_vSzAAuB1gk4NF0p-22">
          <mxGeometry relative="1" as="geometry">
            <mxPoint x="160" y="265" as="targetPoint" />
          </mxGeometry>
        </mxCell>
        <mxCell id="QAPO_vSzAAuB1gk4NF0p-3" value="" style="image;aspect=fixed;perimeter=ellipsePerimeter;html=1;align=center;shadow=0;dashed=0;spacingTop=3;image=img/lib/active_directory/generic_server.svg;" vertex="1" parent="1">
          <mxGeometry x="86" y="239.5" width="28.000000000000004" height="50" as="geometry" />
        </mxCell>
        <mxCell id="QAPO_vSzAAuB1gk4NF0p-32" value="Splunk" style="text;html=1;strokeColor=none;fillColor=none;align=center;verticalAlign=middle;whiteSpace=wrap;rounded=0;" vertex="1" parent="1">
          <mxGeometry x="200.5" y="354.5" width="90" height="30" as="geometry" />
        </mxCell>
        <mxCell id="QAPO_vSzAAuB1gk4NF0p-38" value="Endpoints" style="text;html=1;strokeColor=none;fillColor=none;align=center;verticalAlign=middle;whiteSpace=wrap;rounded=0;" vertex="1" parent="1">
          <mxGeometry x="55" y="354.5" width="90" height="30" as="geometry" />
        </mxCell>
        <mxCell id="QAPO_vSzAAuB1gk4NF0p-48" style="rounded=0;orthogonalLoop=1;jettySize=auto;html=1;entryX=-0.009;entryY=0.471;entryDx=0;entryDy=0;entryPerimeter=0;" edge="1" parent="1" source="QAPO_vSzAAuB1gk4NF0p-51" target="QAPO_vSzAAuB1gk4NF0p-22">
          <mxGeometry relative="1" as="geometry">
            <mxPoint x="112.5" y="223.56849315068496" as="sourcePoint" />
            <mxPoint x="160.5" y="252.5" as="targetPoint" />
          </mxGeometry>
        </mxCell>
        <mxCell id="QAPO_vSzAAuB1gk4NF0p-65" style="edgeStyle=orthogonalEdgeStyle;rounded=0;orthogonalLoop=1;jettySize=auto;html=1;startArrow=classic;startFill=1;" edge="1" parent="1" source="QAPO_vSzAAuB1gk4NF0p-50" target="QAPO_vSzAAuB1gk4NF0p-60">
          <mxGeometry relative="1" as="geometry" />
        </mxCell>
        <mxCell id="QAPO_vSzAAuB1gk4NF0p-66" style="rounded=0;orthogonalLoop=1;jettySize=auto;html=1;entryX=0.094;entryY=0.775;entryDx=0;entryDy=0;entryPerimeter=0;exitX=0.875;exitY=0.25;exitDx=0;exitDy=0;exitPerimeter=0;startArrow=classic;startFill=1;" edge="1" parent="1" source="QAPO_vSzAAuB1gk4NF0p-50" target="QAPO_vSzAAuB1gk4NF0p-55">
          <mxGeometry relative="1" as="geometry" />
        </mxCell>
        <mxCell id="QAPO_vSzAAuB1gk4NF0p-67" style="rounded=0;orthogonalLoop=1;jettySize=auto;html=1;startArrow=classic;startFill=1;" edge="1" parent="1" source="QAPO_vSzAAuB1gk4NF0p-50" target="QAPO_vSzAAuB1gk4NF0p-56">
          <mxGeometry relative="1" as="geometry" />
        </mxCell>
        <mxCell id="QAPO_vSzAAuB1gk4NF0p-68" style="rounded=0;orthogonalLoop=1;jettySize=auto;html=1;startArrow=classic;startFill=1;" edge="1" parent="1" source="QAPO_vSzAAuB1gk4NF0p-50" target="QAPO_vSzAAuB1gk4NF0p-57">
          <mxGeometry relative="1" as="geometry" />
        </mxCell>
        <mxCell id="QAPO_vSzAAuB1gk4NF0p-50" value="" style="verticalLabelPosition=bottom;sketch=0;html=1;fillColor=#A153A0;strokeColor=#ffffff;verticalAlign=top;align=center;points=[[0,0.5,0],[0.125,0.25,0],[0.25,0,0],[0.5,0,0],[0.75,0,0],[0.875,0.25,0],[1,0.5,0],[0.875,0.75,0],[0.75,1,0],[0.5,1,0],[0.125,0.75,0]];pointerEvents=1;shape=mxgraph.cisco_safe.compositeIcon;bgIcon=mxgraph.cisco_safe.design.blank_device;resIcon=mxgraph.cisco_safe.design.siem;" vertex="1" parent="1">
          <mxGeometry x="200.5" y="247" width="37" height="35" as="geometry" />
        </mxCell>
        <mxCell id="QAPO_vSzAAuB1gk4NF0p-51" value="" style="sketch=0;outlineConnect=0;fontColor=#232F3E;gradientColor=none;fillColor=#BF0816;strokeColor=none;dashed=0;verticalLabelPosition=bottom;verticalAlign=top;align=center;html=1;fontSize=12;fontStyle=0;aspect=fixed;pointerEvents=1;shape=mxgraph.aws4.network_firewall_endpoints;" vertex="1" parent="1">
          <mxGeometry x="80" y="184.5" width="40" height="40" as="geometry" />
        </mxCell>
        <mxCell id="QAPO_vSzAAuB1gk4NF0p-53" style="rounded=0;orthogonalLoop=1;jettySize=auto;html=1;entryX=-0.005;entryY=0.53;entryDx=0;entryDy=0;entryPerimeter=0;" edge="1" parent="1" source="QAPO_vSzAAuB1gk4NF0p-52" target="QAPO_vSzAAuB1gk4NF0p-22">
          <mxGeometry relative="1" as="geometry" />
        </mxCell>
        <mxCell id="QAPO_vSzAAuB1gk4NF0p-52" value="" style="image;html=1;image=img/lib/clip_art/networking/Cloud_128x128.png" vertex="1" parent="1">
          <mxGeometry x="75" y="306" width="50" height="39" as="geometry" />
        </mxCell>
        <mxCell id="QAPO_vSzAAuB1gk4NF0p-55" value="" style="verticalLabelPosition=bottom;shadow=0;dashed=0;align=center;html=1;verticalAlign=top;strokeWidth=1;shape=mxgraph.mockup.graphics.pieChart;strokeColor=#008cff;parts=10,20,35;partColors=#e0e0e0,#d0d0d0,#c0c0c0,#b0b0b0,#a0a0a0;strokeWidth=2;" vertex="1" parent="1">
          <mxGeometry x="270.98" y="187" width="38.02" height="40" as="geometry" />
        </mxCell>
        <mxCell id="QAPO_vSzAAuB1gk4NF0p-56" value="" style="outlineConnect=0;dashed=0;verticalLabelPosition=bottom;verticalAlign=top;align=center;html=1;shape=mxgraph.aws3.machine_learning;fillColor=#2E73B8;gradientColor=none;" vertex="1" parent="1">
          <mxGeometry x="285" y="249" width="30" height="33" as="geometry" />
        </mxCell>
        <mxCell id="QAPO_vSzAAuB1gk4NF0p-57" value="" style="sketch=0;outlineConnect=0;fontColor=#232F3E;gradientColor=none;fillColor=#232F3D;strokeColor=none;dashed=0;verticalLabelPosition=bottom;verticalAlign=top;align=center;html=1;fontSize=12;fontStyle=0;aspect=fixed;pointerEvents=1;shape=mxgraph.aws4.alert;" vertex="1" parent="1">
          <mxGeometry x="180" y="307.5" width="30.52" height="27" as="geometry" />
        </mxCell>
        <mxCell id="QAPO_vSzAAuB1gk4NF0p-58" value="" style="sketch=0;outlineConnect=0;fontColor=#232F3E;gradientColor=none;fillColor=#4D27AA;strokeColor=none;dashed=0;verticalLabelPosition=bottom;verticalAlign=top;align=center;html=1;fontSize=12;fontStyle=0;aspect=fixed;pointerEvents=1;shape=mxgraph.aws4.opensearch_service_index;" vertex="1" parent="1">
          <mxGeometry x="205" y="180" width="28" height="28" as="geometry" />
        </mxCell>
        <mxCell id="QAPO_vSzAAuB1gk4NF0p-60" value="&lt;font style=&quot;font-size: 9px;&quot;&gt;Indexierung&lt;/font&gt;" style="text;html=1;strokeColor=none;fillColor=none;align=center;verticalAlign=middle;whiteSpace=wrap;rounded=0;" vertex="1" parent="1">
          <mxGeometry x="189" y="204.5" width="60" height="20" as="geometry" />
        </mxCell>
        <mxCell id="QAPO_vSzAAuB1gk4NF0p-61" value="&lt;font style=&quot;font-size: 9px;&quot;&gt;Darstellung&lt;/font&gt;" style="text;html=1;strokeColor=none;fillColor=none;align=center;verticalAlign=middle;whiteSpace=wrap;rounded=0;" vertex="1" parent="1">
          <mxGeometry x="259.99" y="224.5" width="60" height="20" as="geometry" />
        </mxCell>
        <mxCell id="QAPO_vSzAAuB1gk4NF0p-62" value="&lt;font style=&quot;font-size: 9px;&quot;&gt;Plugins&lt;/font&gt;" style="text;html=1;strokeColor=none;fillColor=none;align=center;verticalAlign=middle;whiteSpace=wrap;rounded=0;" vertex="1" parent="1">
          <mxGeometry x="237.5" y="334.5" width="60" height="20" as="geometry" />
        </mxCell>
        <mxCell id="QAPO_vSzAAuB1gk4NF0p-64" value="&lt;font style=&quot;font-size: 9px;&quot;&gt;Warnmeldung&lt;/font&gt;" style="text;html=1;strokeColor=none;fillColor=none;align=center;verticalAlign=middle;whiteSpace=wrap;rounded=0;" vertex="1" parent="1">
          <mxGeometry x="165.26" y="334.5" width="60" height="20" as="geometry" />
        </mxCell>
        <mxCell id="QAPO_vSzAAuB1gk4NF0p-72" style="rounded=0;orthogonalLoop=1;jettySize=auto;html=1;entryX=0.824;entryY=0.943;entryDx=0;entryDy=0;entryPerimeter=0;startArrow=classic;startFill=1;" edge="1" parent="1" source="QAPO_vSzAAuB1gk4NF0p-71" target="QAPO_vSzAAuB1gk4NF0p-50">
          <mxGeometry relative="1" as="geometry" />
        </mxCell>
        <mxCell id="QAPO_vSzAAuB1gk4NF0p-71" value="" style="image;aspect=fixed;perimeter=ellipsePerimeter;html=1;align=center;shadow=0;dashed=0;spacingTop=3;image=img/lib/active_directory/cd_dvd.svg;" vertex="1" parent="1">
          <mxGeometry x="249" y="304.5" width="30" height="30" as="geometry" />
        </mxCell>
        <mxCell id="QAPO_vSzAAuB1gk4NF0p-73" value="&lt;font style=&quot;font-size: 9px;&quot;&gt;Vearbeitung&lt;/font&gt;" style="text;html=1;strokeColor=none;fillColor=none;align=center;verticalAlign=middle;whiteSpace=wrap;rounded=0;" vertex="1" parent="1">
          <mxGeometry x="270" y="280" width="60" height="20" as="geometry" />
        </mxCell>
        <mxCell id="QAPO_vSzAAuB1gk4NF0p-74" value="" style="image;aspect=fixed;perimeter=ellipsePerimeter;html=1;align=center;shadow=0;dashed=0;spacingTop=3;image=img/lib/active_directory/cd_dvd.svg;" vertex="1" parent="1">
          <mxGeometry x="259.99" y="306" width="30" height="30" as="geometry" />
        </mxCell>
        <mxCell id="QAPO_vSzAAuB1gk4NF0p-75" value="" style="image;aspect=fixed;perimeter=ellipsePerimeter;html=1;align=center;shadow=0;dashed=0;spacingTop=3;image=img/lib/active_directory/cd_dvd.svg;" vertex="1" parent="1">
          <mxGeometry x="240.98000000000002" y="310" width="30" height="30" as="geometry" />
        </mxCell>
      </root>
    </mxGraphModel>
  </diagram>
</mxfile>
